<?xml version="1.0" encoding="utf-8"?>
<!-- Generator: Adobe Illustrator 16.0.0, SVG Export Plug-In . SVG Version: 6.00 Build 0)  -->
<!DOCTYPE svg PUBLIC "-//W3C//DTD SVG 1.1//EN" "http://www.w3.org/Graphics/SVG/1.1/DTD/svg11.dtd">
<svg version="1.1" id="Layer_1" focusable="false" xmlns="http://www.w3.org/2000/svg" xmlns:xlink="http://www.w3.org/1999/xlink"
	 x="0px" y="0px" width="273px" height="313px" viewBox="156.5 37.5 273 313" enable-background="new 156.5 37.5 273 313"
	 xml:space="preserve">
<path d="M410.344,258.375H180.656c-4.23,0-7.656,3.426-7.656,7.656v15.313c0,4.23,3.426,7.656,7.656,7.656h229.688
	c4.229,0,7.656-3.426,7.656-7.656v-15.313C418,261.801,414.573,258.375,410.344,258.375z M264.875,227.75l-30.625-15.313
	l30.625-15.313l15.313-30.625l15.313,30.625l30.625,15.313L295.5,227.75l-7.656,15.313h99.531l-41.349-96.483
	c-2.956-6.894-3.278-14.633-0.903-21.749L372.063,44l-89.76,51.292c-11.323,6.471-20.285,16.387-25.582,28.304l-53.096,119.466
	h68.906L264.875,227.75z M295.5,120.563l7.656-15.313l7.656,15.313l15.313,7.656l-15.313,7.656l-7.656,15.313l-7.656-15.313
	l-15.313-7.656L295.5,120.563z"/>
<g opacity="0.9">
	<image overflow="visible" width="317" height="118" xlink:href="4A8060CD.png"  transform="matrix(1 0 0 1 133.5 258.5)">
	</image>
</g>
</svg>
