<?xml version="1.0" encoding="utf-8"?>
<!-- Generator: Adobe Illustrator 16.0.0, SVG Export Plug-In . SVG Version: 6.00 Build 0)  -->
<!DOCTYPE svg PUBLIC "-//W3C//DTD SVG 1.1//EN" "http://www.w3.org/Graphics/SVG/1.1/DTD/svg11.dtd">
<svg version="1.1" id="Layer_1" xmlns="http://www.w3.org/2000/svg" xmlns:xlink="http://www.w3.org/1999/xlink" x="0px" y="0px"
	 width="231px" height="313px" viewBox="0 0 231 313" enable-background="new 0 0 231 313" xml:space="preserve">
<path fill-rule="evenodd" clip-rule="evenodd" fill="#FEFEFE" d="M-0.014,158.585c0-50.81,0.026-101.62-0.067-152.43
	c-0.005-3.027,0.072-4.31,3.879-4.302C78.263,2.01,152.729,1.989,227.194,1.899c3.017-0.004,3.882,0.545,3.878,3.775
	c-0.105,101.953-0.106,203.906,0.009,305.858c0.004,3.156-0.849,3.506-3.655,3.504c-74.633-0.086-149.266-0.104-223.897,0.041
	c-3.606,0.008-3.592-1.365-3.588-4.063C0.003,260.205-0.014,209.396-0.014,158.585z"/>
<path fill-rule="evenodd" clip-rule="evenodd" fill="#424242" d="M91.104,101.67c-13.03-7.895-13.036-7.896-8.503-22.397
	c1.04-3.329,2.356-6.589,3.167-9.971c1.847-7.705,4.158-14.914,13.241-16.916c0.458-0.101,0.885-0.475,1.253-0.804
	c0.221-0.197,0.299-0.555,0.436-0.842c-4.331-1.048-16.838-0.151-23.727,1.625c-7.681,1.981-15.009,5.022-22.688,7.409
	c7.88-10.451,14.903-21.522,26.763-28.169c7.246-4.062,14.035-8.945,21.318-12.932c15.537-8.506,21.707-6.335,28.491,9.828
	c5.648,13.456,10.456,27.111,5.379,43.079c3.702-2.875,4.62-6.234,7.229-9.351c4.27,9.577,8.875,18.51,12.237,27.888
	c2.706,7.545,7.474,11.928,14.603,14.987c12.941,5.556,26.189,9.316,41.187,8.867c-2.032,3.385-4.392,5.344-6.837,7.229
	c-11.605,8.952-25.148,13.354-39.152,16.672c-1.237,0.294-3.063-0.162-3.385,1.435c-0.268,1.326,1.14,2.295,2.072,3.231
	c1.529,1.533,2.982,3.166,4.652,4.532c9.514,7.789,11.563,17.773,8.736,29.223c-0.836,3.387-1.563,6.816-2.657,10.121
	c-3.376,10.197-3.271,20.252,0.753,30.243c0.228,0.565,0.203,1.231,0.359,2.281c-7.213-3.088-13.184-7.001-17.282-13.431
	c-2.571,6.006-2.649,14.409-0.325,23.188c2.043,7.719,5.746,14.71,10.1,21.883c-7.881-0.189-14.452-2.401-20.213-6.546
	c-2.821-2.029-5.357-2.067-8.375-1.091c-11.5,3.722-20.398,19.717-17.435,31.457c2.181,8.641,6.794,11.645,15.845,10.096
	c0.055,4.887-2.89,7.582-6.746,9.434c-7.209,3.459-14.449,2.768-20.96-1.445c-14.31-9.258-22.702-22.166-22.786-39.686
	c-0.015-3.129,0.304-6.26,0.492-9.856c-6.371,4.737-12.875,8.364-21.484,6.924c9.168-13.824,13.934-28.22,10.176-45.405
	c-4.231,7.445-10.56,10.989-17.743,14.708c1.064-4.144,1.994-7.665,2.872-11.199c1.525-6.14,1.054-12.153-0.801-18.193
	c-1.995-6.495-4.071-12.967-4.626-19.848c-0.608-7.566,1.386-14.076,6.33-19.828c3.121-3.631,6.695-6.95,8.932-11.739
	c-17.438-4.517-34.574-9.391-48.003-24.298c11.187,0.177,20.911-1.41,30.368-4.577c6.318-2.116,12.486-4.609,18.17-8.084
	c2.545-1.556,4.679-1.678,7.333-0.38c3.114,1.521,6.373,2.845,9.932,3.044c3.566-0.531,6.862,0.688,10.244,1.494
	C96.905,104.622,93.344,104.63,91.104,101.67z"/>
<path fill-rule="evenodd" clip-rule="evenodd" fill="#F9F9F9" d="M91.104,101.67c3.324,1.198,6.649,2.396,11.371,4.096
	c-5.348,0.181-9.057-0.404-12.674-1.698C90.773,103.561,90.994,102.646,91.104,101.67z"/>
<path fill-rule="evenodd" clip-rule="evenodd" fill="#FCFCFC" d="M119.406,153.95c-1.291-11.563-1.289-11.507,9.424-11.852
	c4.474-0.144,8.94-0.556,13.406-0.897c1.605-0.124,3.042-0.313,2.781,2.096c-0.48,4.444-0.458,8.977-1.938,13.25
	c-1.447,4.183-3.559,4.752-6.232,1.429C132.048,152.01,126.809,148.702,119.406,153.95z"/>
<path fill-rule="evenodd" clip-rule="evenodd" fill="#FCFCFC" d="M116.063,141.969c-0.573,1.684-0.979,2.584-1.182,3.527
	c-0.761,3.545-1.104,6.787-6.532,6.107c-3.558-0.445-5.879,3.236-8.256,5.802c-1.178,1.271-2.24,3.303-4.447,2.421
	c-1.837-0.735-2.499-2.569-2.756-4.446c-0.585-4.268-2.858-9.429-1.242-12.587c2.008-3.92,7.521-0.27,11.522-0.722
	C107.267,141.608,111.455,141.969,116.063,141.969z"/>
<path fill-rule="evenodd" clip-rule="evenodd" fill="#FAFAFA" d="M118.775,159.993c3.03-0.215,5.932,0.173,8.674,1.612
	c1.459,0.767,2.531,1.804,2.25,3.462c-0.309,1.828-1.647,3.042-3.525,2.843c-4.855-0.516-9.672-0.663-14.534-0.011
	c-1.745,0.234-3.284-0.655-3.613-2.664c-0.326-1.987,0.903-3.081,2.499-3.849C113.135,160.133,115.914,159.796,118.775,159.993z"/>
</svg>
